<svg xmlns="http://www.w3.org/2000/svg" width="760" height="360" viewBox="0 0 760 360" role="img">
  <defs>
    <linearGradient id="header" x1="0" y1="0" x2="1" y2="1">
      <stop offset="0%" stop-color="#0ea5e9"/>
      <stop offset="55%" stop-color="#22c55e"/>
      <stop offset="100%" stop-color="#f59e0b"/>
    </linearGradient>
    <filter id="shadow" x="-10%" y="-10%" width="120%" height="120%">
      <feDropShadow dx="0" dy="8" stdDeviation="10" flood-color="#0f172a" flood-opacity="0.10"/>
    </filter>
  </defs>
  <rect width="760" height="360" rx="18" fill="#ffffff"/>
  <rect x="1" y="1" width="758" height="358" rx="17" fill="#ffffff" stroke="#e2e8f0"/>

  <rect x="22" y="22" width="716" height="58" rx="16" fill="url(#header)" filter="url(#shadow)"/>
  <text x="46" y="58" fill="#ffffff" font-family="Segoe UI, Arial, sans-serif" font-size="23" font-weight="750">Language Footprint</text>
  <text x="714" y="58" text-anchor="end" fill="#ecfeff" font-family="Segoe UI, Arial, sans-serif" font-size="13">public original repos</text>
  <text x="46" y="106" fill="#0f172a" font-family="Segoe UI, Arial, sans-serif" font-size="15" font-weight="650">C++</text>
  <rect x="170" y="92" width="500" height="18" rx="9" fill="#f1f5f9"/>
  <rect x="170" y="92" width="314" height="18" rx="9" fill="#f34b7d"/>
  <text x="690" y="106" text-anchor="end" fill="#475569" font-family="Segoe UI, Arial, sans-serif" font-size="13">63.0%</text>
  <text x="46" y="131" fill="#0f172a" font-family="Segoe UI, Arial, sans-serif" font-size="15" font-weight="650">HTML</text>
  <rect x="170" y="117" width="500" height="18" rx="9" fill="#f1f5f9"/>
  <rect x="170" y="117" width="82" height="18" rx="9" fill="#e34c26"/>
  <text x="690" y="131" text-anchor="end" fill="#475569" font-family="Segoe UI, Arial, sans-serif" font-size="13">16.5%</text>
  <text x="46" y="156" fill="#0f172a" font-family="Segoe UI, Arial, sans-serif" font-size="15" font-weight="650">C</text>
  <rect x="170" y="142" width="500" height="18" rx="9" fill="#f1f5f9"/>
  <rect x="170" y="142" width="64" height="18" rx="9" fill="#555555"/>
  <text x="690" y="156" text-anchor="end" fill="#475569" font-family="Segoe UI, Arial, sans-serif" font-size="13">12.9%</text>
  <text x="46" y="181" fill="#0f172a" font-family="Segoe UI, Arial, sans-serif" font-size="15" font-weight="650">Rust</text>
  <rect x="170" y="167" width="500" height="18" rx="9" fill="#f1f5f9"/>
  <rect x="170" y="167" width="14" height="18" rx="9" fill="#dea584"/>
  <text x="690" y="181" text-anchor="end" fill="#475569" font-family="Segoe UI, Arial, sans-serif" font-size="13">2.9%</text>
  <text x="46" y="206" fill="#0f172a" font-family="Segoe UI, Arial, sans-serif" font-size="15" font-weight="650">Python</text>
  <rect x="170" y="192" width="500" height="18" rx="9" fill="#f1f5f9"/>
  <rect x="170" y="192" width="9" height="18" rx="9" fill="#3572A5"/>
  <text x="690" y="206" text-anchor="end" fill="#475569" font-family="Segoe UI, Arial, sans-serif" font-size="13">1.9%</text>
  <text x="46" y="231" fill="#0f172a" font-family="Segoe UI, Arial, sans-serif" font-size="15" font-weight="650">CMake</text>
  <rect x="170" y="217" width="500" height="18" rx="9" fill="#f1f5f9"/>
  <rect x="170" y="217" width="6" height="18" rx="9" fill="#DA3434"/>
  <text x="690" y="231" text-anchor="end" fill="#475569" font-family="Segoe UI, Arial, sans-serif" font-size="13">1.4%</text>
  <text x="46" y="256" fill="#0f172a" font-family="Segoe UI, Arial, sans-serif" font-size="15" font-weight="650">JavaScript</text>
  <rect x="170" y="242" width="500" height="18" rx="9" fill="#f1f5f9"/>
  <rect x="170" y="242" width="2" height="18" rx="9" fill="#f1e05a"/>
  <text x="690" y="256" text-anchor="end" fill="#475569" font-family="Segoe UI, Arial, sans-serif" font-size="13">0.5%</text>
  <text x="46" y="281" fill="#0f172a" font-family="Segoe UI, Arial, sans-serif" font-size="15" font-weight="650">TypeScript</text>
  <rect x="170" y="267" width="500" height="18" rx="9" fill="#f1f5f9"/>
  <rect x="170" y="267" width="1" height="18" rx="9" fill="#3178c6"/>
  <text x="690" y="281" text-anchor="end" fill="#475569" font-family="Segoe UI, Arial, sans-serif" font-size="13">0.4%</text>
  <text x="46" y="306" fill="#0f172a" font-family="Segoe UI, Arial, sans-serif" font-size="15" font-weight="650">CSS</text>
  <rect x="170" y="292" width="500" height="18" rx="9" fill="#f1f5f9"/>
  <rect x="170" y="292" width="1" height="18" rx="9" fill="#663399"/>
  <text x="690" y="306" text-anchor="end" fill="#475569" font-family="Segoe UI, Arial, sans-serif" font-size="13">0.3%</text>
  <text x="46" y="331" fill="#0f172a" font-family="Segoe UI, Arial, sans-serif" font-size="15" font-weight="650">Shell</text>
  <rect x="170" y="317" width="500" height="18" rx="9" fill="#f1f5f9"/>
  <rect x="170" y="317" width="1" height="18" rx="9" fill="#89e051"/>
  <text x="690" y="331" text-anchor="end" fill="#475569" font-family="Segoe UI, Arial, sans-serif" font-size="13">0.3%</text>
  <text x="46" y="330" fill="#64748b" font-family="Segoe UI, Arial, sans-serif" font-size="13">Generated from GitHub API. Forks and archived repositories are excluded.</text>
</svg>
